<?xml version="1.0" encoding="iso-8859-1"?>
<!-- Generator: Adobe Illustrator 19.0.0, SVG Export Plug-In . SVG Version: 6.00 Build 0)  -->
<svg version="1.1" id="&#x5716;&#x5C64;_1" xmlns="http://www.w3.org/2000/svg" xmlns:xlink="http://www.w3.org/1999/xlink" x="0px"
	 y="0px" viewBox="0 0 232.836 137.104" enable-background="new 0 0 232.836 137.104" xml:space="preserve">
<g id="XMLID_2216_">
	<path id="XMLID_193_" fill="#F1F1F1" d="M33.201,1c4.705,0,9.131,0.723,13.155,2.149c3.623,1.282,6.663,2.982,9.049,5.057
		l-7.962,9.066c-1.415-1.4-3.183-2.585-5.271-3.53c-2.485-1.119-5.328-1.686-8.451-1.686c-2.725,0-5.274,0.508-7.576,1.509
		c-2.303,0.999-4.333,2.415-6.031,4.206c-1.7,1.787-3.036,3.935-3.969,6.383c-0.934,2.433-1.408,5.127-1.408,8.008
		c0,2.928,0.425,5.655,1.263,8.105c0.851,2.489,2.13,4.66,3.804,6.454c1.677,1.8,3.774,3.22,6.233,4.222
		c2.447,0.996,5.265,1.501,8.376,1.501c1.776,0,3.489-0.135,5.094-0.402c1.634-0.275,3.167-0.721,4.556-1.325l0.601-0.262V49.8
		V38.649v-1h-1H32.991v-9.933h23.246v30.808c-2.802,1.392-6.076,2.55-9.744,3.447c-3.906,0.957-8.233,1.442-12.86,1.442
		c-4.752,0-9.185-0.763-13.177-2.269c-3.973-1.5-7.438-3.64-10.299-6.361c-2.855-2.715-5.118-6.02-6.727-9.825
		C1.818,41.154,1,36.849,1,32.162c0-4.735,0.831-9.082,2.47-12.92c1.638-3.829,3.929-7.133,6.812-9.821
		c2.883-2.691,6.319-4.789,10.213-6.236C24.403,1.735,28.678,1,33.201,1 M33.201,0c-4.669,0-9.019,0.751-13.054,2.248
		c-4.035,1.499-7.551,3.646-10.547,6.443c-2.999,2.797-5.347,6.181-7.049,10.159C0.852,22.827,0,27.266,0,32.162
		c0,4.842,0.836,9.24,2.509,13.186c1.67,3.949,3.991,7.336,6.958,10.159c2.97,2.825,6.513,5.016,10.635,6.572
		c4.12,1.554,8.631,2.333,13.53,2.333c4.726,0,9.092-0.489,13.098-1.471c4.006-0.979,7.507-2.248,10.506-3.804V26.717H31.991v11.933
		h11.671V49.8c-1.326,0.577-2.766,0.994-4.322,1.256c-1.556,0.259-3.201,0.388-4.928,0.388c-2.999,0-5.663-0.476-7.999-1.427
		c-2.333-0.95-4.294-2.276-5.878-3.978c-1.585-1.699-2.781-3.732-3.589-6.096c-0.808-2.362-1.209-4.956-1.209-7.782
		c0-2.766,0.445-5.316,1.341-7.65c0.891-2.336,2.144-4.353,3.76-6.052c1.613-1.701,3.514-3.027,5.705-3.978
		c2.191-0.953,4.583-1.427,7.178-1.427c2.996,0,5.676,0.533,8.041,1.598c2.362,1.069,4.265,2.437,5.705,4.107l9.338-10.633
		C54.21,5.65,50.838,3.675,46.69,2.206C42.539,0.735,38.043,0,33.201,0L33.201,0z"/>
</g>
<g id="XMLID_2208_">
	<path id="XMLID_189_" fill="#F1F1F1" d="M109.497,2.644v10.448h-25.89h-1v1v11.586v1h1h24.419v9.845H83.607h-1v1v12.71v1h1h27.446
		v10.624H70.341V2.644H109.497 M110.497,1.644H69.341v61.212h42.712V50.232H83.607v-12.71h25.419V25.678H83.607V14.092h26.89V1.644
		L110.497,1.644z"/>
</g>
<g id="XMLID_2198_">
	<path id="XMLID_175_" fill="#F1F1F1" d="M176.502,2.644v59.212h-15.214l-24.349-39.554l-0.293-0.476h-0.559h-0.259h-1.009
		l0.009,1.009l0.338,39.021h-12.345V2.644h15.302l24.261,39.468l0.293,0.476h0.559h0.259h1.009l-0.009-1.009l-0.338-38.935H176.502
		 M177.502,1.644h-14.354l0.347,39.944h-0.259L138.682,1.644h-16.861v61.212h14.354l-0.347-40.03h0.259l24.642,40.03h16.773V1.644
		L177.502,1.644z"/>
</g>
<g id="XMLID_2148_">
	<path id="XMLID_169_" fill="#F1F1F1" d="M230.279,2.644v10.448h-25.89h-1v1v11.586v1h1h24.419v9.845h-24.419h-1v1v12.71v1h1h27.446
		v10.624h-40.712V2.644H230.279 M231.279,1.644h-41.156v61.212h42.712V50.232h-28.446v-12.71h25.419V25.678h-25.419V14.092h26.89
		V1.644L231.279,1.644z"/>
</g>
<g id="XMLID_2145_">
	<path id="XMLID_184_" fill="#F1F1F1" d="M88.882,76.892c3.251,0,6.333,0.326,9.16,0.969c2.779,0.633,5.224,1.66,7.267,3.05
		c2.012,1.37,3.619,3.196,4.776,5.426c1.158,2.238,1.745,5.065,1.745,8.402c0,3.389-0.629,6.269-1.868,8.559
		c-1.243,2.296-2.937,4.169-5.036,5.566c-2.138,1.426-4.646,2.484-7.453,3.145c-2.857,0.671-5.864,1.012-8.938,1.012h-7.347h-1v1
		v22.083H67.402V76.892H88.882 M80.188,103.262h1h6.223c1.446,0,2.845-0.122,4.154-0.363c1.371-0.246,2.628-0.692,3.735-1.325
		c1.149-0.656,2.07-1.544,2.737-2.643c0.67-1.107,1.009-2.488,1.009-4.104c0-1.622-0.342-2.993-1.017-4.076
		c-0.671-1.072-1.584-1.918-2.714-2.516c-1.082-0.571-2.313-0.956-3.66-1.145c-1.292-0.178-2.632-0.268-3.982-0.268h-6.484h-1v1
		v14.439V103.262 M88.882,75.892h-22.48v61.212h14.786v-23.083h7.347c3.17,0,6.225-0.347,9.167-1.038
		c2.939-0.691,5.531-1.787,7.779-3.286c2.248-1.497,4.035-3.473,5.36-5.922c1.326-2.45,1.989-5.459,1.989-9.035
		c0-3.514-0.619-6.469-1.857-8.862c-1.24-2.39-2.942-4.322-5.101-5.793c-2.162-1.471-4.7-2.535-7.608-3.198
		C95.35,76.224,92.225,75.892,88.882,75.892L88.882,75.892z M81.188,102.262V87.822h6.484c1.323,0,2.605,0.088,3.845,0.259
		c1.24,0.173,2.349,0.521,3.33,1.038c0.979,0.518,1.756,1.24,2.333,2.162c0.575,0.922,0.865,2.103,0.865,3.545
		c0,1.44-0.29,2.636-0.865,3.587c-0.577,0.95-1.37,1.717-2.377,2.292c-1.01,0.577-2.147,0.981-3.416,1.209
		c-1.269,0.233-2.592,0.347-3.978,0.347H81.188L81.188,102.262z"/>
</g>
<g id="XMLID_2142_">
	<path id="XMLID_178_" fill="#F1F1F1" d="M146.314,76.892l24.589,59.212h-14.25l-4.504-11.386l-0.25-0.632h-0.68h-23.689h-0.694
		l-0.243,0.65l-4.252,11.368h-13.884l24.839-59.212H146.314 M130.328,114.242h1.437h15.39h1.426l-0.485-1.341l-7.608-21.009
		l-0.93-2.567l-0.948,2.56l-7.782,21.009L130.328,114.242 M146.981,75.892H132.63l-25.678,61.212h16.081l4.495-12.018h23.689
		l4.754,12.018H172.4L146.981,75.892L146.981,75.892z M131.765,113.242l7.782-21.009l7.608,21.009H131.765L131.765,113.242z"/>
</g>
<g id="XMLID_2140_">
	<path id="XMLID_165_" fill="#F1F1F1" d="M231.836,76.892v59.212h-15.214l-24.349-39.554l-0.293-0.476h-0.559h-0.259h-1.009
		l0.009,1.009l0.338,39.021h-12.345V76.892h15.302l24.261,39.468l0.293,0.476h0.559h0.259h1.009l-0.009-1.009l-0.338-38.935H231.836
		 M232.836,75.892h-14.354l0.347,39.944h-0.259l-24.554-39.944h-16.861v61.212h14.354l-0.347-40.029h0.259l24.642,40.029h16.773
		V75.892L232.836,75.892z"/>
</g>
<g id="XMLID_2139_">
	<path id="XMLID_156_" fill="#F1F1F1" d="M47.359,124.07v9.383H9.878v-9.383H47.359 M48.359,123.07H8.878v11.383h39.481V123.07
		L48.359,123.07z"/>
</g>
</svg>
